<?xml version="1.0" encoding="utf-8"?>
<!-- Generator: Adobe Illustrator 19.0.0, SVG Export Plug-In . SVG Version: 6.00 Build 0)  -->
<svg version="1.1" id="Capa_1" xmlns="http://www.w3.org/2000/svg" xmlns:xlink="http://www.w3.org/1999/xlink" x="0px" y="0px"
	 viewBox="0 0 362.6 178.1" style="enable-background:new 0 0 362.6 178.1;" xml:space="preserve">
<style type="text/css">
	.Sombra_x0020_paralela{fill:none;}
	.Esquinas_x0020_redondeadas_x0020_2_x0020_pt_x002E_{fill:#FFFFFF;stroke:#000000;stroke-miterlimit:10;}
	.Reflejo_x0020_vivo_x0020_X{fill:none;}
	.Bisel_x0020_suave{fill:url(#SVGID_1_);}
	.Atardecer{fill:#FFFFFF;}
	.Follaje_GS{fill:#FFDD00;}
	.Pompadour_GS{fill-rule:evenodd;clip-rule:evenodd;fill:#51AEE2;}
	.st0{fill:#FFFFFF;}
</style>
<linearGradient id="SVGID_1_" gradientUnits="userSpaceOnUse" x1="0" y1="0" x2="0.7071" y2="0.7071">
	<stop  offset="0" style="stop-color:#E6E6EB"/>
	<stop  offset="0.1738" style="stop-color:#E2E2E6"/>
	<stop  offset="0.352" style="stop-color:#D5D4D8"/>
	<stop  offset="0.5323" style="stop-color:#C0BFC2"/>
	<stop  offset="0.7139" style="stop-color:#A4A2A4"/>
	<stop  offset="0.8949" style="stop-color:#828282"/>
	<stop  offset="1" style="stop-color:#6B6E6E"/>
</linearGradient>
<g id="XMLID_2_">
	<g id="XMLID_165_">
		<path id="XMLID_179_" class="st0" d="M111.6,38.4c0.1,0.8,0,1.6-0.5,2.3c-0.5,0.7-1.1,1.1-1.9,1.3l-16.8,3.4
			c-1.6,4-3.1,7.8-4.3,11.3c-1.2,3.5-2.3,6.7-3.3,9.8c-2,6.3-3.1,11.5-3.5,15.4c-0.3,2.8-0.4,4.8-0.1,6c0.3,1.2,0.6,2.1,0.9,2.6
			c0.1,0.3,0.4,0.5,0.8,0.8c0.4,0.2,0.9,0.4,1.7,0.4c1.2,0,2.7-0.6,4.4-1.9c1.7-1.3,3.5-3.1,5.4-5.5c0.8-0.9,1.5-1.9,2.2-2.9
			c0.6-1,1.2-1.8,1.8-2.6c0.6-0.9,1.1-1.7,1.6-2.5c0.4-0.7,1-1.2,1.8-1.5c0.8-0.2,1.6-0.2,2.3,0.3c0.7,0.4,1.2,1,1.4,1.8
			s0.1,1.6-0.3,2.3c0,0.1-0.2,0.4-0.5,0.9c-0.3,0.5-0.7,1.2-1.3,2c-0.5,0.8-1.2,1.8-1.9,2.8c-0.7,1-1.6,2.1-2.4,3.2
			c-2.1,2.6-4.2,4.7-6.3,6.4c-2.9,2.2-5.6,3.2-8.2,3.2c-2.1,0-3.7-0.4-4.9-1.3c-1.2-0.8-2.1-1.7-2.7-2.6c-1.6-2.5-2.3-6.1-1.9-10.8
			c0.3-4.7,1.7-10.8,3.9-18.4c0.9-3,1.9-5.9,3-8.9c1-3,2.1-5.9,3.3-8.9l-3.2,0.7h-0.6c-0.7,0-1.4-0.2-1.9-0.7c-0.5-0.4-0.9-1-1-1.8
			c-0.1-0.8,0-1.6,0.5-2.3c0.4-0.7,1.1-1.1,1.9-1.3l7.2-1.5c0.9-2.1,1.7-4.1,2.5-6c0.8-1.9,1.6-3.7,2.3-5.4c0.3-0.7,0.9-1.3,1.7-1.6
			c0.8-0.3,1.5-0.3,2.3,0c0.8,0.3,1.4,0.9,1.7,1.7c0.3,0.8,0.3,1.6-0.1,2.3l-3.2,7.5l12.9-2.6c0.8-0.1,1.6,0,2.3,0.5
			C110.9,36.9,111.4,37.6,111.6,38.4z"/>
		<path id="XMLID_177_" class="st0" d="M96.8,97.7c-0.5,0-0.8-0.1-1.1-0.3c-0.7-0.3-1.3-0.8-1.6-1.5c-0.3-0.7-0.4-1.4-0.1-2.1
			c0-0.1,0.3-1.1,1-3.2c0.7-2.1,1.6-4.9,2.7-8.3c1.1-3.5,2.5-7.5,4-11.9c1.5-4.5,3.1-9.1,4.9-13.9c1.7-4.8,3.5-9.6,5.3-14.3
			c1.8-4.8,3.6-9.2,5.5-13.3c0.3-0.7,0.9-1.3,1.7-1.6c0.8-0.3,1.5-0.3,2.3,0c0.8,0.3,1.4,0.9,1.7,1.7c0.3,0.8,0.3,1.6-0.1,2.3
			c-1.3,3-2.6,6.1-3.9,9.4c-1.3,3.3-2.6,6.7-3.9,10.2c-1.3,3.5-2.6,6.9-3.8,10.4c-1.2,3.5-2.4,6.8-3.5,10.1c2.5-3.5,4.8-6.4,7-8.8
			c4-4.4,7.5-6.6,10.4-6.6c1.2,0,2.2,0.2,2.9,0.7c0.7,0.4,1.2,0.9,1.6,1.4c1.1,1.6,1.5,3.6,1.2,6.1c-0.4,2.5-1,5.7-2,9.7
			c-0.2,0.7-0.4,1.3-0.6,2c-0.2,0.6-0.3,1.3-0.5,2.1c-1,3.8-1.7,6.9-1.9,9.3c-0.1,1.5-0.2,2.5-0.1,3.1c0.1,0.6,0.2,0.9,0.4,1.1
			c0.1,0.1,0.4,0.2,0.8,0.3c0.4,0.1,0.7,0.1,1,0.1c1.1,0,2.6-0.6,4.2-1.9c1.7-1.2,3.5-3.1,5.5-5.4c1.6-2,3-3.9,4-5.6
			c1-1.7,1.6-2.6,1.6-2.6c0.4-0.7,1-1.2,1.8-1.4c0.8-0.2,1.6-0.1,2.3,0.3c0.7,0.4,1.2,1,1.4,1.8s0.1,1.6-0.3,2.3
			c0,0.1-0.2,0.4-0.5,0.9c-0.3,0.5-0.7,1.2-1.3,2c-0.5,0.8-1.2,1.8-1.9,2.8c-0.7,1-1.6,2.1-2.4,3.2c-2.2,2.6-4.3,4.7-6.3,6.3
			c-2.8,2.2-5.6,3.3-8.2,3.3c-2.9,0-5.1-0.9-6.5-2.7c-0.8-1-1.3-2.2-1.5-3.5c-0.2-1.3-0.2-2.8-0.1-4.4c0.1-1.6,0.4-3.3,0.8-5.1
			c0.4-1.8,0.8-3.7,1.3-5.7l1.1-4.1c0.3-1.5,0.7-2.8,1-4c0.3-1.2,0.5-2.3,0.7-3.3c0.1-0.7,0.2-1.3,0.3-1.8c0-0.4,0.1-0.8,0.1-1
			c-0.3,0.1-0.8,0.3-1.5,0.7c-0.7,0.4-1.7,1.2-2.8,2.4c-1.2,1.2-2.6,2.8-4.4,5c-1.7,2.1-3.7,4.9-6,8.4c-1.5,2.2-2.9,4.3-4.1,6.4
			c-1.3,2.1-2.4,4-3.4,5.6c-1,1.7-2,3.5-3.1,5.6C98.9,97.1,98,97.7,96.8,97.7z"/>
		<path id="XMLID_173_" class="st0" d="M211.4,97.6c-2,0-3.5-0.4-4.7-1.2c-1.2-0.8-2.1-1.6-2.7-2.4c-2.2-3.1-2.7-8.3-1.5-15.5
			c0.5-3.5,1.4-7.7,2.9-12.6c-0.8,0.4-1.8,0.8-2.8,1.3c-4.4,1.8-8.4,2.5-12.1,2c-1.1,3.5-2.7,6.9-4.7,10.1c-2,3.2-4.3,6.1-6.8,8.7
			c-3,3-6.3,5.3-9.8,6.9c-3.5,1.6-7.1,2.4-10.8,2.4c-6.1,0-10.7-1.8-13.6-5.3c-0.9-1.1-1.7-2.6-2.3-4.6c-0.7-2-0.7-4.6-0.1-7.7
			c0.6-3.1,1.7-6.1,3.1-9c1.5-2.9,3.4-5.5,5.7-7.8c2-2,4.1-3.7,6.4-5c2.3-1.3,4.4-2,6.4-2.2c1.8-0.2,3.4,0.1,4.8,0.8
			c1.3,0.7,2.4,1.8,3,3.4c0.7,1.9,0.8,4.1,0.3,6.7c-0.6,2.6-1.7,5.2-3.5,7.8c-1.1,1.7-2.5,3.2-4,4.7c-1.5,1.4-3.2,2.6-4.9,3.6
			c-3.3,2-7,3.2-11.1,3.5c0.9,2,2.3,3.3,4.1,3.9c1.9,0.7,3.8,1,5.8,1c5.8,0,11.2-2.5,16.1-7.4c2.2-2.2,4-4.5,5.6-7.1
			c1.6-2.6,3.1-5.7,4.8-9.4c-1.1-0.7-2.1-1.4-2.9-2.1c-2.2-2-3.7-4.3-4.4-6.7c-0.6-2.3-0.6-4.5,0.1-6.6c0.5-1.6,1.4-2.8,2.5-3.9
			c1.1-1,2.4-1.6,3.8-1.8c2.8-0.2,5.1,1.2,6.8,4.3c1.7,3.1,2.3,6.8,1.7,11l-0.3,1.7c1.2,0.1,2.5,0.1,3.8-0.3
			c1.3-0.3,2.7-0.8,4.3-1.4c1.2-0.5,2.4-1.1,3.4-1.7c1.1-0.6,2-1.2,2.7-1.7c0.9-0.6,1.7-1.2,2.5-1.8c0.5-0.5,1.2-0.7,1.9-0.8
			c0.7,0,1.3,0.2,1.9,0.6s0.9,0.9,1.2,1.6c0.2,0.6,0.2,1.3-0.1,2c-2,5.7-3.4,10.4-4.3,14.2c-0.9,3.8-1.4,6.8-1.6,9.2
			c-0.2,2.3-0.1,4,0.2,5.2c0.3,1.1,0.5,1.9,0.8,2.3c0.2,0.3,0.5,0.5,0.8,0.7c0.3,0.2,0.9,0.3,1.6,0.3c1.2,0,2.7-0.6,4.4-1.9
			c1.7-1.3,3.5-3.1,5.4-5.5c0.8-0.9,1.5-1.9,2.2-2.9c0.6-1,1.2-1.8,1.8-2.6c0.6-0.9,1.1-1.7,1.6-2.5c0.4-0.7,1-1.2,1.8-1.5
			c0.8-0.2,1.6-0.2,2.3,0.3c0.7,0.4,1.2,1,1.5,1.8c0.2,0.8,0.1,1.6-0.4,2.3c0,0.1-0.2,0.4-0.5,0.9c-0.3,0.5-0.7,1.2-1.3,2
			c-0.5,0.8-1.2,1.8-1.9,2.8c-0.7,1-1.6,2.1-2.4,3.2c-2.1,2.6-4.2,4.7-6.3,6.4C216.7,96.5,213.9,97.6,211.4,97.6z M165,61.7
			c-0.2,0-0.4,0-0.5,0.1c-0.9,0.1-2.2,0.6-3.9,1.4c-1.7,0.8-3.4,2.1-5.1,3.9c-1.8,1.8-3.2,3.8-4.5,6.1c-1.2,2.2-2.1,4.6-2.6,7
			c3-0.3,5.9-1.3,8.4-2.9c2.6-1.6,4.8-3.7,6.5-6.3c1.3-1.9,2.1-3.6,2.5-5.3c0.4-1.6,0.4-2.8,0.1-3.5C166,61.8,165.7,61.7,165,61.7z
			 M184.5,52.3c-0.1,0-0.3,0.1-0.6,0.4c-0.2,0.2-0.5,0.6-0.7,1.2c-0.1,0.2-0.1,0.5-0.2,1c-0.1,0.4-0.1,1,0.1,1.6
			c0.1,0.6,0.4,1.3,0.8,2c0.4,0.7,1,1.5,1.9,2.3l0.5,0.3c0.1-1.3,0.2-2.7,0.1-4c-0.1-1.3-0.5-2.5-1.1-3.7c-0.1-0.1-0.3-0.3-0.4-0.4
			c-0.1-0.1-0.2-0.3-0.3-0.4L184.5,52.3z"/>
		<path id="XMLID_171_" class="st0" d="M223.6,97.7c-0.4,0-0.8-0.1-1.2-0.3c-0.7-0.3-1.3-0.9-1.6-1.6c-0.3-0.7-0.3-1.4-0.1-2.2
			c1.3-4,2.5-7.6,3.6-10.9c1.1-3.3,2.4-7.1,3.9-11.4c1.5-4.3,3.1-8.8,4.8-13.6c0.3-0.7,0.9-1.3,1.6-1.7c0.7-0.4,1.5-0.4,2.3-0.1
			c0.7,0.3,1.3,0.9,1.7,1.6c0.4,0.7,0.4,1.5,0.1,2.2c-0.7,1.9-1.3,3.7-2,5.5c-0.6,1.8-1.2,3.5-1.8,5.3c1.1-1.6,2.3-3.1,3.3-4.5
			c1.1-1.3,2.1-2.6,3.1-3.7c4-4.4,7.5-6.6,10.4-6.6c1.2,0,2.2,0.2,2.9,0.7c0.7,0.4,1.2,0.9,1.6,1.4c1.1,1.6,1.5,3.6,1.2,6.1
			c-0.4,2.5-1,5.7-2,9.7c-0.2,0.7-0.4,1.3-0.6,2c-0.2,0.6-0.3,1.3-0.5,2.1c-1,3.8-1.7,6.9-1.9,9.3c-0.1,1.5-0.2,2.5-0.1,3.1
			c0.1,0.6,0.2,0.9,0.4,1.1c0.1,0.1,0.4,0.2,0.8,0.3c0.4,0.1,0.7,0.1,1,0.1c1.1,0,2.6-0.6,4.3-1.9c1.7-1.3,3.5-3.1,5.4-5.5
			c0.8-1,1.6-2,2.2-2.9c0.7-0.9,1.3-1.8,1.8-2.5c0.5-0.7,1-1.6,1.6-2.6c0.4-0.7,1-1.2,1.8-1.4c0.8-0.2,1.6-0.1,2.3,0.3
			c0.7,0.4,1.2,1,1.4,1.8s0.1,1.6-0.3,2.3c0,0.1-0.2,0.4-0.5,0.9c-0.3,0.5-0.7,1.2-1.3,2c-0.5,0.8-1.2,1.8-1.9,2.8
			c-0.7,1-1.6,2.1-2.4,3.2c-2.2,2.6-4.2,4.7-6.3,6.3c-2.8,2.2-5.6,3.3-8.2,3.3c-2.9,0-5.1-0.9-6.5-2.7c-0.8-1-1.3-2.2-1.5-3.5
			c-0.2-1.3-0.2-2.8-0.1-4.4c0.1-1.6,0.4-3.3,0.8-5.1c0.4-1.8,0.8-3.7,1.3-5.7l1.1-4.1c0.3-1.5,0.7-2.8,1-4c0.3-1.2,0.5-2.3,0.7-3.3
			c0.1-0.7,0.2-1.3,0.3-1.8c0-0.4,0.1-0.8,0.1-1c-0.3,0.1-0.8,0.3-1.5,0.7c-0.7,0.4-1.7,1.2-2.8,2.4c-1.2,1.2-2.6,2.8-4.4,5
			c-1.7,2.1-3.7,4.9-6,8.4c-1.5,2.2-2.9,4.3-4.1,6.4c-1.3,2.1-2.4,4-3.4,5.6c-1,1.7-2,3.5-3.1,5.6C225.7,97.1,224.7,97.7,223.6,97.7
			z"/>
		<path id="XMLID_169_" class="st0" d="M302.5,97.6c-2.8,0-5-1-6.6-3.1c-1.4-1.8-2.2-4.3-2.4-7.4c-0.9,1.1-1.8,2.2-2.7,3.2
			c-0.9,1-1.9,1.9-2.8,2.7c-2.4,2-4.7,3.3-7,3.9c-2.4,0.8-4.7,0.8-6.8,0.1c-1.4-0.5-2.6-1.4-3.6-2.5c-1-1.1-1.7-2.5-2.2-4.1
			c-0.8-3-0.6-6.6,0.5-10.8c0.9-3.4,2.3-6.5,4.2-9.5c1.9-3,4.1-5.6,6.6-8c2.4-2.2,4.9-3.8,7.3-4.9c2.4-1,4.6-1.3,6.6-0.8
			c0.4,0.1,0.9,0.4,1.6,0.7c0.7,0.3,1.3,0.9,1.9,1.7c0.6,0.8,1,1.8,1.3,3.2c0.3,1.4,0.2,3.1-0.3,5.2c-0.1,0.8-0.6,1.5-1.3,1.9
			c-0.7,0.5-1.5,0.6-2.3,0.4c-0.8-0.1-1.5-0.6-1.9-1.3c-0.5-0.7-0.6-1.5-0.4-2.3c0.2-1.1,0.3-1.9,0.3-2.4c0-0.5-0.1-0.8-0.2-1
			c-0.1-0.2-0.2-0.3-0.3-0.3c-0.5-0.1-1.6,0.1-3.1,0.7c-1.5,0.6-3.3,1.8-5.2,3.6c-2.1,2-3.9,4.2-5.5,6.7c-1.6,2.5-2.8,5.2-3.5,7.9
			c-0.7,2.6-1,4.9-0.7,6.7c0.3,1.9,1,3,2.1,3.4c0.7,0.3,1.8,0.2,3.1-0.2c1.3-0.4,2.9-1.3,4.8-2.8c1.5-1.3,3.3-3.2,5.4-5.9
			c2.1-2.6,4.2-6.4,6.4-11.2c0.3-0.7,0.9-1.3,1.6-1.6c0.7-0.3,1.4-0.3,2.2-0.1c0.7,0.3,1.3,0.8,1.7,1.5c0.4,0.7,0.5,1.4,0.3,2.1
			c-1.4,5.1-2,9-2,11.8c0,2.8,0.4,4.7,1.2,5.7c0.1,0.2,0.3,0.4,0.6,0.6c0.3,0.2,0.7,0.3,1.2,0.3c1.2,0,2.7-0.6,4.4-1.9
			c1.7-1.3,3.6-3.1,5.5-5.5c1.7-2,3.1-3.9,4.1-5.5c1-1.7,1.6-2.5,1.6-2.6c0.4-0.7,1-1.2,1.8-1.4c0.8-0.2,1.6-0.1,2.3,0.3
			c0.7,0.5,1.2,1.1,1.4,1.9c0.2,0.8,0.1,1.5-0.3,2.3c0,0.1-0.2,0.4-0.5,0.9c-0.3,0.5-0.8,1.2-1.3,2c-0.5,0.8-1.2,1.8-2,2.8
			c-0.8,1-1.6,2.1-2.5,3.2c-1.1,1.4-2.2,2.5-3.2,3.6c-1.1,1-2.1,2-3.1,2.8C307.8,96.5,305.1,97.6,302.5,97.6z"/>
		<path id="XMLID_167_" class="st0" d="M326.7,97.6c-2.1,0-3.7-0.4-4.9-1.3c-1.2-0.8-2-1.7-2.6-2.6c-1.6-2.5-2.3-6.1-2-10.8
			c0.3-4.7,1.6-10.8,3.9-18.4c1-3.2,2.1-6.4,3.3-9.7c1.2-3.3,2.4-6.5,3.6-9.6c1.2-3.1,2.4-6.1,3.6-8.9c1.2-2.8,2.3-5.4,3.3-7.8
			c0.3-0.7,0.9-1.3,1.7-1.6c0.8-0.3,1.6-0.3,2.4,0c0.7,0.3,1.3,0.9,1.6,1.7c0.3,0.8,0.3,1.6-0.1,2.3c-6.3,14.4-10.8,26.2-13.6,35.2
			c-2,6.3-3.1,11.4-3.5,15.5c-0.3,2.8-0.4,4.8-0.1,6c0.3,1.2,0.6,2.1,0.9,2.6c0.1,0.3,0.4,0.5,0.8,0.8c0.4,0.2,0.9,0.4,1.7,0.4
			c1.2,0,2.7-0.6,4.4-1.9c1.7-1.3,3.5-3.1,5.4-5.5c0.8-1,1.6-2,2.2-2.9c0.7-0.9,1.3-1.8,1.8-2.5c0.5-0.7,1-1.6,1.6-2.6
			c0.4-0.7,1-1.2,1.8-1.4c0.8-0.2,1.6-0.1,2.3,0.3c0.7,0.4,1.2,1,1.5,1.8c0.2,0.8,0.1,1.6-0.4,2.3c0,0.1-0.2,0.4-0.5,0.9
			c-0.3,0.5-0.7,1.2-1.3,2c-0.5,0.8-1.2,1.8-1.9,2.8c-0.7,1-1.6,2.1-2.4,3.2c-2.2,2.6-4.3,4.7-6.3,6.3
			C332.1,96.5,329.3,97.6,326.7,97.6z"/>
		<path id="XMLID_166_" class="st0" d="M46.5,122.1c1.7,0,3-1.3,3-3c0-1.7-1.3-3-3-3l0.7,0.1c-2.9-0.6-5.6-1.4-8.1-2.5
			c-5.3-2.2-9.6-5.4-12.8-9.5c-2.6-3.3-4.3-6.9-5.1-10.9c-0.8-4-0.9-8.3-0.2-12.9c2-0.4,4.2-0.8,6.6-1.1c2.4-0.3,4.7-0.6,7.1-0.9
			c2.2-0.2,4.2-0.4,6.2-0.7c2-0.2,3.8-0.5,5.3-0.9c2-0.4,3.4-0.9,4.3-1.4c1.3-0.7,2.2-1.4,2.5-2.2c0.3-0.8,0.5-1.5,0.5-2
			c0-0.8-0.3-1.5-0.9-2.1c-0.6-0.6-1.3-0.9-2.1-0.9c-1.4,0-2.4,0.7-2.8,2c-0.3,0.1-0.7,0.3-1.4,0.5c-0.6,0.2-1.6,0.4-2.9,0.6
			C42,71.6,40.6,71.8,39,72c-1.6,0.2-3.2,0.4-5,0.6c-2,0.2-3.9,0.4-5.8,0.6s-3.8,0.5-5.6,0.8c2.2-6.9,5.1-13.4,8.7-19.4
			c3.6-6,7.9-11.3,12.8-15.9c4.5-4.3,9.1-7.4,13.7-9.3c4.1-1.8,7.6-2.3,10.4-1.7c1.7,0.4,2.9,1.2,3.7,2.4s1.3,2.6,1.6,4.2
			c0.3,1.6,0.3,3.2,0.2,5c-0.2,1.7-0.4,3.3-0.7,4.6c-0.1,0.8,0,1.6,0.5,2.3c0.4,0.7,1.1,1.1,1.9,1.3c0.9,0.2,1.7,0.1,2.3-0.4
			c0.7-0.5,1.1-1.1,1.3-1.9c1.3-6.3,1.1-11.5-0.5-15.6c-1.6-4.2-4.6-6.8-9-7.8c-4.1-0.9-8.8-0.2-14.2,2.1c-2.6,1.1-5.1,2.6-7.7,4.3
			c-2.6,1.7-5.1,3.8-7.6,6.1c-5.7,5.3-10.6,11.4-14.7,18.5c-4.1,7.1-7.2,14.7-9.3,22.8c-1.1,0.3-2.1,0.7-3,1.1
			c-0.8,0.4-1.6,0.8-2.3,1.2c-1.5,1-2.5,2.1-2.9,3.1c-0.5,1.1-0.7,2-0.7,2.8c0,0.9,0.3,1.6,0.9,2.2c0.6,0.6,1.3,0.9,2.1,0.9
			c0.9,0,1.6-0.3,2.2-0.9c0.6-0.6,0.9-1.3,0.9-2.2c0-0.3,0.5-0.7,1.5-1.2c-0.4,3.8-0.3,7.5,0.4,10.9c1.1,5.5,3.2,10.4,6.5,14.6
			c4.3,5.3,9.5,9.2,15.7,11.5C40,120.5,43.5,121.5,46.5,122.1z"/>
	</g>
</g>
<g id="XMLID_1_">
	<g id="XMLID_210_">
		<path id="XMLID_227_" class="st0" d="M64.6,153.7v-38.3h15.9c1.7,0,3.2,0.4,4.6,1.1c1.4,0.7,2.6,1.6,3.6,2.8
			c1,1.1,1.8,2.4,2.4,3.9c0.6,1.4,0.9,2.9,0.9,4.4c0,1.6-0.3,3.1-0.8,4.6c-0.5,1.5-1.3,2.7-2.3,3.9c-1,1.1-2.1,2-3.5,2.7
			c-1.3,0.7-2.8,1-4.5,1H68.4v14.1H64.6z M68.4,136.2h12.2c1.1,0,2.1-0.2,3-0.7c0.9-0.5,1.7-1.1,2.3-1.9c0.6-0.8,1.2-1.7,1.5-2.8
			c0.4-1.1,0.5-2.2,0.5-3.3c0-1.2-0.2-2.3-0.6-3.4c-0.4-1.1-1-2-1.7-2.8c-0.7-0.8-1.5-1.4-2.5-1.9c-1-0.4-2-0.7-3-0.7H68.4V136.2z"
			/>
		<path id="XMLID_224_" class="st0" d="M98.2,153.7v-38.3h16.2c1.7,0,3.2,0.4,4.6,1.1c1.4,0.7,2.6,1.6,3.6,2.8
			c1,1.1,1.8,2.4,2.3,3.9c0.6,1.4,0.8,2.9,0.8,4.4c0,1.4-0.2,2.7-0.6,4c-0.4,1.3-1,2.4-1.7,3.5c-0.7,1-1.6,1.9-2.7,2.6
			c-1,0.7-2.2,1.2-3.5,1.4l9.4,14.8h-4.3l-9-14.1H102v14.1H98.2z M102,136.2h12.5c1.1,0,2.1-0.2,3-0.7c0.9-0.5,1.7-1.1,2.3-2
			c0.6-0.8,1.2-1.8,1.5-2.8c0.4-1,0.5-2.1,0.5-3.3c0-1.2-0.2-2.3-0.6-3.3c-0.4-1.1-1-2-1.7-2.8c-0.7-0.8-1.5-1.4-2.5-1.9
			c-1-0.5-2-0.7-3-0.7H102V136.2z"/>
		<path id="XMLID_221_" class="st0" d="M148.8,153.9c-2.7,0-5.1-0.5-7.3-1.6c-2.2-1.1-4.1-2.6-5.7-4.4c-1.6-1.8-2.8-3.9-3.7-6.2
			c-0.9-2.3-1.3-4.7-1.3-7.2c0-2.6,0.5-5,1.4-7.3c0.9-2.3,2.2-4.4,3.8-6.2c1.6-1.8,3.5-3.2,5.7-4.3c2.2-1.1,4.6-1.6,7.1-1.6
			c2.7,0,5.1,0.6,7.3,1.7c2.2,1.1,4.1,2.6,5.7,4.4c1.6,1.8,2.8,3.9,3.6,6.2c0.9,2.3,1.3,4.7,1.3,7.1c0,2.6-0.5,5-1.4,7.3
			c-0.9,2.3-2.2,4.4-3.8,6.2c-1.6,1.8-3.5,3.2-5.7,4.3C153.7,153.4,151.4,153.9,148.8,153.9z M134.6,134.5c0,2.1,0.3,4.1,1,6
			c0.7,1.9,1.7,3.6,2.9,5.1c1.3,1.5,2.8,2.7,4.5,3.6c1.7,0.9,3.6,1.3,5.8,1.3c2.2,0,4.1-0.5,5.9-1.4c1.8-0.9,3.3-2.2,4.5-3.7
			c1.2-1.5,2.2-3.2,2.8-5.1c0.7-1.9,1-3.8,1-5.8c0-2.1-0.4-4.1-1.1-6c-0.7-1.9-1.7-3.6-2.9-5.1c-1.3-1.5-2.8-2.7-4.5-3.5
			c-1.7-0.9-3.6-1.3-5.7-1.3c-2.2,0-4.1,0.5-5.9,1.4c-1.8,0.9-3.3,2.1-4.5,3.6c-1.2,1.5-2.2,3.2-2.8,5.1
			C135,130.6,134.6,132.5,134.6,134.5z"/>
		<path id="XMLID_219_" class="st0" d="M207.8,153.7v-31.4l-14,24.3h-2.2l-14-24.3v31.4h-3.8v-38.3h3.9l14.9,26.2l15-26.2h3.8v38.3
			H207.8z"/>
		<path id="XMLID_217_" class="st0" d="M221.2,153.7v-38.3h3.8v38.3H221.2z"/>
		<path id="XMLID_215_" class="st0" d="M257,122.5c-1.1-1.2-2.5-2.2-4.3-3c-1.8-0.8-3.8-1.1-6.1-1.1c-3.4,0-5.8,0.6-7.4,1.9
			c-1.5,1.3-2.3,3-2.3,5.2c0,1.2,0.2,2.1,0.6,2.8c0.4,0.7,1.1,1.4,1.9,1.9c0.9,0.5,2,1,3.3,1.4c1.3,0.4,2.9,0.8,4.8,1.2
			c2,0.4,3.9,0.9,5.5,1.5c1.6,0.5,3,1.2,4.2,2c1.2,0.8,2,1.8,2.6,2.9c0.6,1.2,0.9,2.6,0.9,4.3c0,1.8-0.3,3.3-1,4.6s-1.6,2.4-2.9,3.2
			c-1.2,0.9-2.7,1.5-4.4,1.9c-1.7,0.4-3.5,0.6-5.6,0.6c-5.9,0-11.1-1.9-15.4-5.6l1.9-3.1c0.7,0.7,1.5,1.4,2.5,2c1,0.6,2,1.2,3.2,1.7
			c1.2,0.5,2.4,0.9,3.7,1.1s2.7,0.4,4.2,0.4c3.1,0,5.4-0.5,7.1-1.6c1.7-1.1,2.6-2.8,2.6-5c0-1.2-0.2-2.2-0.7-3
			c-0.5-0.8-1.2-1.5-2.2-2.1c-1-0.6-2.2-1.1-3.6-1.5c-1.4-0.4-3.1-0.9-5-1.3c-2-0.5-3.8-1-5.3-1.5c-1.5-0.5-2.8-1.1-3.8-1.9
			c-1-0.8-1.8-1.7-2.3-2.7c-0.5-1.1-0.8-2.4-0.8-3.9c0-1.8,0.3-3.3,1-4.7c0.7-1.4,1.6-2.5,2.8-3.5c1.2-0.9,2.7-1.6,4.3-2.1
			c1.7-0.5,3.5-0.7,5.5-0.7c2.6,0,4.8,0.4,6.8,1.2c2,0.8,3.8,1.9,5.4,3.3L257,122.5z"/>
		<path id="XMLID_213_" class="st0" d="M293,150.3v3.3h-25.7v-38.3h25.2v3.3h-21.5v13.8h18.7v3.2h-18.7v14.6H293z"/>
		<path id="XMLID_211_" class="st0" d="M321.7,122.5c-1.1-1.2-2.5-2.2-4.3-3c-1.8-0.8-3.8-1.1-6.1-1.1c-3.4,0-5.8,0.6-7.4,1.9
			c-1.5,1.3-2.3,3-2.3,5.2c0,1.2,0.2,2.1,0.6,2.8c0.4,0.7,1.1,1.4,1.9,1.9c0.9,0.5,2,1,3.3,1.4c1.3,0.4,2.9,0.8,4.8,1.2
			c2,0.4,3.9,0.9,5.5,1.5c1.6,0.5,3,1.2,4.2,2c1.2,0.8,2,1.8,2.6,2.9c0.6,1.2,0.9,2.6,0.9,4.3c0,1.8-0.3,3.3-1,4.6s-1.6,2.4-2.9,3.2
			c-1.2,0.9-2.7,1.5-4.4,1.9c-1.7,0.4-3.5,0.6-5.6,0.6c-5.9,0-11.1-1.9-15.4-5.6l1.9-3.1c0.7,0.7,1.5,1.4,2.5,2c1,0.6,2,1.2,3.2,1.7
			c1.2,0.5,2.4,0.9,3.7,1.1c1.3,0.3,2.7,0.4,4.2,0.4c3.1,0,5.4-0.5,7.1-1.6c1.7-1.1,2.6-2.8,2.6-5c0-1.2-0.2-2.2-0.7-3
			c-0.5-0.8-1.2-1.5-2.2-2.1c-1-0.6-2.2-1.1-3.6-1.5c-1.4-0.4-3.1-0.9-5-1.3c-2-0.5-3.8-1-5.3-1.5c-1.5-0.5-2.8-1.1-3.8-1.9
			c-1-0.8-1.8-1.7-2.3-2.7c-0.5-1.1-0.8-2.4-0.8-3.9c0-1.8,0.3-3.3,1-4.7c0.7-1.4,1.6-2.5,2.8-3.5c1.2-0.9,2.7-1.6,4.3-2.1
			c1.7-0.5,3.5-0.7,5.5-0.7c2.6,0,4.8,0.4,6.8,1.2c2,0.8,3.8,1.9,5.4,3.3L321.7,122.5z"/>
	</g>
</g>
</svg>
