<?xml version="1.0" encoding="utf-8"?>
<!-- Generator: Adobe Illustrator 19.0.0, SVG Export Plug-In . SVG Version: 6.00 Build 0)  -->
<svg version="1.1" id="Capa_1" xmlns="http://www.w3.org/2000/svg" xmlns:xlink="http://www.w3.org/1999/xlink" x="0px" y="0px"
	 viewBox="157 -77.1 362.6 202.1" style="enable-background:new 157 -77.1 362.6 202.1;" xml:space="preserve">
<style type="text/css">
	.st0{fill:#525975;}
	.st1{fill:#FBA100;}
</style>
<g id="XMLID_2_">
	<g id="XMLID_168_">
		<path id="XMLID_182_" class="st0" d="M277.8-27.5c0.1,0.7,0,1.4-0.5,2.1c-0.4,0.7-1,1-1.8,1.2L260-21c-1.5,3.7-2.8,7.2-4,10.4
			c-1.2,3.2-2.2,6.2-3,9c-1.8,5.9-2.9,10.6-3.3,14.2c-0.3,2.6-0.3,4.4-0.1,5.6s0.5,1.9,0.8,2.4c0.1,0.2,0.4,0.5,0.7,0.7
			c0.3,0.2,0.9,0.3,1.5,0.3c1.1,0,2.5-0.6,4-1.8c1.6-1.2,3.2-2.9,4.9-5c0.7-0.9,1.4-1.8,2-2.7c0.6-0.9,1.1-1.7,1.6-2.4
			c0.6-0.8,1.1-1.6,1.5-2.3c0.4-0.7,0.9-1.1,1.7-1.4c0.7-0.2,1.5-0.1,2.1,0.2c0.7,0.4,1.1,0.9,1.3,1.7c0.2,0.7,0.1,1.5-0.3,2.1
			c0,0.1-0.1,0.3-0.4,0.8s-0.7,1.1-1.2,1.9s-1.1,1.6-1.8,2.6c-0.7,1-1.4,1.9-2.2,2.9c-1.9,2.4-3.9,4.3-5.8,5.9c-2.7,2-5.2,3-7.6,3
			c-1.9,0-3.4-0.4-4.5-1.2c-1.1-0.8-1.9-1.6-2.5-2.4c-1.5-2.3-2.1-5.6-1.8-9.9s1.5-10,3.6-16.9c0.9-2.7,1.8-5.5,2.8-8.2s2-5.5,3-8.2
			l-3,0.7h-0.6c-0.7,0-1.3-0.2-1.8-0.6s-0.8-0.9-0.9-1.6c-0.1-0.7,0-1.4,0.4-2.1c0.4-0.7,1-1,1.7-1.2l6.6-1.4
			c0.8-1.9,1.6-3.8,2.3-5.5s1.5-3.4,2.1-4.9c0.3-0.7,0.8-1.2,1.5-1.5s1.4-0.3,2.1,0s1.3,0.8,1.5,1.6c0.3,0.7,0.3,1.5,0,2.1l-3,6.9
			l11.9-2.4c0.7-0.1,1.4,0,2.1,0.5C277.2-28.8,277.6-28.2,277.8-27.5z"/>
		<path id="XMLID_180_" class="st0" d="M264.2,27.2c-0.4,0-0.8-0.1-1-0.3c-0.7-0.3-1.2-0.8-1.5-1.4s-0.3-1.3-0.1-2
			c0-0.1,0.3-1.1,0.9-3c0.6-1.9,1.5-4.5,2.5-7.7c1.1-3.2,2.3-6.9,3.7-11s2.9-8.4,4.5-12.8c1.6-4.4,3.2-8.8,4.9-13.2
			c1.7-4.4,3.4-8.5,5-12.3c0.3-0.7,0.8-1.2,1.5-1.5s1.4-0.3,2.1,0s1.3,0.8,1.5,1.6s0.3,1.5,0,2.1c-1.2,2.7-2.4,5.6-3.6,8.7
			c-1.2,3.1-2.4,6.2-3.6,9.4s-2.4,6.4-3.5,9.6c-1.2,3.2-2.2,6.3-3.2,9.3c2.3-3.2,4.4-5.9,6.4-8.1c3.7-4,6.9-6.1,9.6-6.1
			c1.1,0,2,0.2,2.7,0.6s1.1,0.8,1.4,1.3c1.1,1.4,1.4,3.3,1.1,5.6s-0.9,5.3-1.8,9c-0.2,0.6-0.4,1.2-0.5,1.8c-0.2,0.6-0.3,1.2-0.4,1.9
			c-0.9,3.5-1.5,6.4-1.8,8.6c-0.1,1.4-0.1,2.3,0,2.8c0.1,0.5,0.2,0.9,0.3,1s0.4,0.2,0.7,0.3c0.3,0.1,0.6,0.1,0.9,0.1
			c1.1,0,2.4-0.6,3.9-1.7c1.6-1.2,3.2-2.8,5-5c1.5-1.9,2.7-3.6,3.7-5.1c1-1.6,1.4-2.4,1.4-2.4c0.4-0.7,0.9-1.1,1.7-1.3
			c0.7-0.2,1.5-0.1,2.1,0.3c0.7,0.4,1.1,0.9,1.3,1.7c0.2,0.7,0.1,1.5-0.3,2.1c0,0.1-0.1,0.3-0.4,0.8s-0.7,1.1-1.2,1.9
			s-1.1,1.6-1.8,2.6c-0.7,1-1.4,1.9-2.2,2.9c-2,2.4-3.9,4.4-5.8,5.8c-2.6,2.1-5.1,3.1-7.6,3.1c-2.7,0-4.7-0.8-6-2.5
			c-0.7-0.9-1.2-2-1.4-3.2c-0.2-1.2-0.2-2.6-0.1-4c0.1-1.5,0.4-3,0.7-4.7c0.3-1.7,0.7-3.4,1.2-5.2l1-3.8c0.3-1.4,0.6-2.6,0.9-3.7
			s0.5-2.1,0.6-3.1c0.1-0.7,0.2-1.2,0.2-1.6s0-0.7,0-0.9c-0.2,0.1-0.7,0.3-1.4,0.7c-0.7,0.4-1.5,1.1-2.6,2.2c-1.1,1.1-2.4,2.6-4,4.6
			c-1.6,2-3.4,4.6-5.6,7.8c-1.4,2-2.6,4-3.8,5.9c-1.2,1.9-2.2,3.7-3.1,5.2c-0.9,1.5-1.9,3.3-2.8,5.2
			C266.1,26.7,265.2,27.2,264.2,27.2z"/>
		<path id="XMLID_176_" class="st0" d="M369.8,27.1c-1.8,0-3.3-0.4-4.3-1.1c-1.1-0.7-1.9-1.4-2.5-2.2c-2.1-2.9-2.5-7.6-1.4-14.3
			c0.4-3.2,1.3-7.1,2.7-11.7c-0.7,0.4-1.6,0.8-2.6,1.2c-4,1.7-7.8,2.3-11.2,1.9c-1.1,3.2-2.5,6.3-4.3,9.3s-3.9,5.6-6.3,8
			c-2.8,2.8-5.8,4.9-9,6.4s-6.5,2.2-9.9,2.2c-5.7,0-9.8-1.6-12.5-4.9c-0.8-1-1.5-2.4-2.1-4.2c-0.6-1.8-0.7-4.2-0.1-7.1
			c0.6-2.9,1.5-5.6,2.9-8.3c1.4-2.6,3.1-5.1,5.2-7.2c1.8-1.9,3.8-3.4,5.9-4.6c2.1-1.2,4.1-1.9,5.9-2.1c1.7-0.2,3.1,0,4.4,0.7
			c1.2,0.7,2.2,1.7,2.8,3.1c0.7,1.7,0.8,3.8,0.2,6.2c-0.5,2.4-1.6,4.8-3.2,7.2c-1.1,1.6-2.3,3-3.7,4.3s-2.9,2.4-4.5,3.4
			c-3,1.9-6.5,3-10.3,3.3c0.8,1.8,2.1,3,3.8,3.6c1.7,0.6,3.5,0.9,5.3,0.9c5.4,0,10.3-2.3,14.8-6.8c2-2,3.7-4.2,5.1-6.6
			c1.4-2.4,2.9-5.3,4.4-8.6c-1.1-0.6-2-1.3-2.7-2c-2.1-1.9-3.4-3.9-4-6.2c-0.6-2.1-0.5-4.1,0.1-6.1c0.5-1.4,1.3-2.6,2.3-3.6
			c1.1-1,2.2-1.5,3.5-1.6c2.6-0.2,4.7,1.1,6.3,3.9c1.6,2.9,2.1,6.3,1.6,10.2l-0.3,1.6c1.1,0.1,2.3,0,3.5-0.2c1.2-0.3,2.5-0.7,4-1.3
			c1.1-0.5,2.2-1,3.2-1.6s1.8-1.1,2.5-1.6c0.8-0.6,1.6-1.1,2.3-1.7c0.5-0.4,1.1-0.7,1.7-0.7c0.7,0,1.2,0.1,1.7,0.5s0.9,0.9,1.1,1.4
			c0.2,0.6,0.2,1.2,0,1.8c-1.8,5.2-3.1,9.6-3.9,13.1s-1.3,6.3-1.4,8.4c-0.2,2.1-0.1,3.7,0.1,4.8c0.2,1,0.5,1.7,0.7,2.1
			c0.2,0.2,0.4,0.5,0.7,0.7c0.3,0.2,0.8,0.3,1.5,0.3c1.1,0,2.5-0.6,4-1.8c1.6-1.2,3.2-2.9,4.9-5c0.7-0.9,1.4-1.8,2-2.7
			c0.6-0.9,1.1-1.7,1.6-2.4c0.6-0.8,1.1-1.6,1.5-2.3c0.4-0.7,0.9-1.1,1.7-1.4c0.7-0.2,1.5-0.1,2.1,0.2c0.7,0.4,1.1,0.9,1.4,1.7
			c0.2,0.7,0.1,1.5-0.3,2.1c0,0.1-0.1,0.3-0.4,0.8c-0.3,0.5-0.7,1.1-1.2,1.9S386,14,385.3,15c-0.7,1-1.4,1.9-2.2,2.9
			c-1.9,2.4-3.9,4.3-5.8,5.9C374.7,26.1,372.2,27.1,369.8,27.1z M327.1-6c-0.2,0-0.3,0-0.5,0.1c-0.9,0.1-2.1,0.6-3.6,1.3
			s-3.1,2-4.7,3.6c-1.6,1.7-3,3.5-4.1,5.6c-1.1,2.1-1.9,4.2-2.4,6.4c2.8-0.3,5.4-1.2,7.8-2.7c2.4-1.5,4.4-3.4,6-5.8
			c1.2-1.7,2-3.4,2.3-4.9c0.4-1.5,0.4-2.6,0.1-3.3C328-5.9,327.7-6,327.1-6z M345.1-14.6c-0.1,0-0.3,0.1-0.5,0.3
			c-0.2,0.2-0.4,0.6-0.6,1.1c-0.1,0.2-0.1,0.5-0.2,0.9c-0.1,0.4,0,0.9,0,1.4s0.3,1.2,0.7,1.9c0.4,0.7,1,1.4,1.8,2.1l0.5,0.3
			c0.1-1.2,0.1-2.5,0-3.7c-0.1-1.2-0.4-2.3-1-3.4c-0.1-0.1-0.2-0.2-0.3-0.4c-0.1-0.1-0.2-0.2-0.2-0.4L345.1-14.6z"/>
		<path id="XMLID_174_" class="st0" d="M381.1,27.2c-0.4,0-0.7-0.1-1.1-0.3c-0.7-0.3-1.2-0.8-1.4-1.4c-0.3-0.7-0.3-1.3,0-2
			c1.2-3.7,2.3-7,3.3-10S384.1,7,385.5,3c1.4-4,2.8-8.2,4.4-12.5c0.3-0.7,0.8-1.2,1.5-1.6s1.4-0.4,2.1-0.1s1.2,0.8,1.6,1.5
			c0.4,0.7,0.4,1.4,0.1,2.1c-0.6,1.7-1.2,3.4-1.8,5c-0.6,1.6-1.1,3.2-1.6,4.9c1.1-1.5,2.1-2.9,3.1-4.1s2-2.4,2.9-3.5
			c3.7-4,6.9-6.1,9.6-6.1c1.1,0,2,0.2,2.7,0.6s1.1,0.8,1.4,1.3c1.1,1.4,1.4,3.3,1.1,5.6s-0.9,5.3-1.8,9c-0.2,0.6-0.4,1.2-0.5,1.8
			c-0.2,0.6-0.3,1.2-0.4,1.9c-0.9,3.5-1.5,6.4-1.8,8.6c-0.1,1.4-0.1,2.3,0,2.8c0.1,0.5,0.2,0.9,0.3,1c0.1,0.1,0.4,0.2,0.7,0.3
			c0.3,0.1,0.6,0.1,0.9,0.1c1.1,0,2.4-0.6,4-1.8c1.6-1.2,3.3-2.9,5-5c0.7-0.9,1.4-1.8,2.1-2.7c0.6-0.9,1.2-1.6,1.6-2.3
			c0.5-0.7,0.9-1.5,1.4-2.4c0.4-0.7,0.9-1.1,1.7-1.3c0.8-0.2,1.5-0.1,2.1,0.3c0.6,0.4,1.1,0.9,1.3,1.7c0.2,0.7,0.1,1.5-0.3,2.1
			c0,0.1-0.1,0.3-0.4,0.8s-0.7,1.1-1.2,1.9s-1.1,1.6-1.8,2.6s-1.4,1.9-2.2,2.9c-2,2.4-3.9,4.4-5.8,5.8c-2.6,2.1-5.1,3.1-7.6,3.1
			c-2.7,0-4.7-0.8-6-2.5c-0.7-0.9-1.2-2-1.4-3.2c-0.2-1.2-0.2-2.6-0.1-4c0.1-1.5,0.4-3,0.7-4.7c0.3-1.7,0.7-3.4,1.2-5.2l1-3.8
			c0.3-1.4,0.6-2.6,0.9-3.7s0.5-2.1,0.6-3.1c0.1-0.7,0.2-1.2,0.2-1.6s0-0.7,0-0.9c-0.3,0.1-0.7,0.3-1.4,0.7s-1.5,1.1-2.6,2.2
			c-1.1,1.1-2.4,2.6-4,4.6c-1.6,2-3.4,4.6-5.6,7.8c-1.4,2-2.6,4-3.8,5.9c-1.2,1.9-2.2,3.7-3.1,5.2c-0.9,1.5-1.9,3.3-2.8,5.2
			C383,26.7,382.2,27.2,381.1,27.2z"/>
		<path id="XMLID_172_" class="st0" d="M453.9,27.1c-2.6,0-4.6-1-6.1-2.9c-1.3-1.7-2.1-4-2.2-6.8c-0.8,1.1-1.6,2-2.5,2.9
			c-0.9,0.9-1.7,1.7-2.6,2.5c-2.2,1.8-4.3,3-6.4,3.6c-2.2,0.7-4.3,0.8-6.3,0.1c-1.3-0.5-2.4-1.3-3.3-2.3c-0.9-1.1-1.6-2.3-2-3.8
			c-0.7-2.7-0.6-6.1,0.5-10c0.9-3.1,2.2-6,3.9-8.8c1.7-2.7,3.7-5.2,6.1-7.4c2.2-2.1,4.5-3.5,6.7-4.5c2.2-0.9,4.3-1.2,6.1-0.7
			c0.4,0.1,0.9,0.3,1.5,0.7c0.6,0.3,1.2,0.8,1.8,1.5s1,1.7,1.2,2.9s0.2,2.8-0.3,4.8c-0.1,0.7-0.5,1.3-1.2,1.8
			c-0.7,0.4-1.4,0.6-2.1,0.4c-0.7-0.1-1.3-0.5-1.8-1.2c-0.4-0.7-0.6-1.4-0.4-2.1c0.2-1,0.3-1.7,0.2-2.2c0-0.5-0.1-0.8-0.1-0.9
			c-0.1-0.2-0.2-0.3-0.3-0.3c-0.5-0.1-1.4,0.1-2.8,0.6c-1.4,0.5-3,1.6-4.8,3.3c-1.9,1.8-3.6,3.9-5.1,6.2s-2.5,4.8-3.2,7.3
			c-0.7,2.4-0.9,4.5-0.7,6.2s0.9,2.8,2,3.1c0.7,0.2,1.6,0.2,2.9-0.1c1.2-0.3,2.7-1.2,4.4-2.6c1.4-1.2,3-3,4.9-5.4
			c1.9-2.4,3.9-5.9,5.9-10.4c0.3-0.7,0.8-1.2,1.4-1.4c0.7-0.3,1.3-0.3,2,0s1.2,0.8,1.5,1.4s0.4,1.3,0.2,2c-1.2,4.7-1.9,8.3-1.8,10.9
			c0,2.6,0.4,4.4,1.1,5.2c0.1,0.2,0.3,0.4,0.6,0.5c0.2,0.2,0.6,0.2,1.1,0.2c1.1,0,2.5-0.6,4.1-1.8c1.6-1.2,3.3-2.9,5.1-5
			c1.6-1.9,2.8-3.6,3.8-5.1s1.4-2.3,1.4-2.4c0.4-0.7,0.9-1.1,1.7-1.3c0.8-0.2,1.5-0.1,2.1,0.3c0.7,0.4,1.1,1,1.3,1.7
			s0.1,1.4-0.3,2.1c0,0.1-0.2,0.3-0.5,0.8s-0.7,1.1-1.2,1.9c-0.5,0.8-1.1,1.6-1.8,2.6c-0.7,1-1.5,1.9-2.3,2.9c-1,1.2-2,2.3-3,3.3
			s-2,1.8-2.9,2.6C458.8,26.1,456.3,27.1,453.9,27.1z"/>
		<path id="XMLID_170_" class="st0" d="M476.2,27.1c-1.9,0-3.4-0.4-4.5-1.2c-1.1-0.8-1.9-1.6-2.4-2.4c-1.5-2.3-2.1-5.6-1.8-9.9
			s1.5-10,3.6-16.9c0.9-2.9,1.9-5.9,3-8.9c1.1-3,2.2-6,3.3-8.8c1.1-2.9,2.2-5.6,3.4-8.2c1.1-2.6,2.1-5,3.1-7.2
			c0.3-0.7,0.8-1.2,1.5-1.5s1.4-0.3,2.2,0c0.7,0.3,1.2,0.8,1.4,1.6c0.2,0.8,0.3,1.5,0,2.1c-5.8,13.3-10,24.1-12.5,32.5
			c-1.8,5.8-2.9,10.5-3.3,14.3c-0.3,2.6-0.3,4.4-0.1,5.6s0.5,1.9,0.8,2.4c0.1,0.2,0.4,0.5,0.7,0.7c0.3,0.2,0.9,0.3,1.5,0.3
			c1.1,0,2.5-0.6,4-1.8c1.6-1.2,3.2-2.9,4.9-5c0.7-0.9,1.4-1.8,2.1-2.7c0.6-0.9,1.2-1.6,1.6-2.3c0.5-0.7,0.9-1.5,1.4-2.4
			c0.4-0.7,0.9-1.1,1.7-1.3c0.8-0.2,1.5-0.1,2.1,0.3c0.7,0.4,1.1,0.9,1.4,1.7c0.2,0.7,0.1,1.5-0.3,2.1c0,0.1-0.1,0.3-0.4,0.8
			s-0.7,1.1-1.2,1.9c-0.5,0.8-1.1,1.6-1.8,2.6s-1.4,1.9-2.2,2.9c-2,2.4-3.9,4.4-5.8,5.8C481.2,26.1,478.7,27.1,476.2,27.1z"/>
		<path id="XMLID_169_" class="st0" d="M217.8,49.7c1.5,0,2.8-1.2,2.8-2.8s-1.2-2.8-2.8-2.8l0.7,0.1c-2.6-0.5-5.1-1.3-7.5-2.3
			c-4.9-2.1-8.8-5-11.8-8.8c-2.4-3-3.9-6.4-4.7-10.1s-0.8-7.6-0.1-11.9c1.9-0.4,3.9-0.7,6.1-1s4.4-0.5,6.5-0.8
			c2-0.2,3.9-0.4,5.7-0.6c1.8-0.2,3.5-0.5,4.9-0.8c1.8-0.4,3.1-0.8,3.9-1.3c1.2-0.6,2-1.3,2.3-2.1c0.3-0.7,0.5-1.4,0.5-1.9
			c0-0.7-0.3-1.4-0.8-2c-0.6-0.6-1.2-0.8-2-0.8c-1.3,0-2.2,0.6-2.6,1.9c-0.2,0.1-0.7,0.3-1.3,0.4c-0.6,0.2-1.5,0.3-2.7,0.5
			s-2.6,0.4-4,0.6s-3,0.4-4.6,0.6c-1.8,0.2-3.6,0.4-5.4,0.6s-3.5,0.4-5.2,0.7c2-6.4,4.7-12.4,8-17.9c3.4-5.5,7.3-10.4,11.8-14.7
			c4.2-3.9,8.4-6.8,12.6-8.6c3.8-1.6,7-2.1,9.6-1.6c1.6,0.4,2.7,1.1,3.5,2.2c0.7,1.1,1.2,2.4,1.5,3.9c0.2,1.5,0.3,3,0.1,4.6
			s-0.4,3-0.6,4.2c-0.1,0.7,0,1.4,0.4,2.1s1,1,1.7,1.2c0.8,0.2,1.5,0.1,2.1-0.4c0.6-0.4,1-1,1.2-1.8c1.2-5.8,1-10.6-0.5-14.4
			c-1.5-3.9-4.3-6.3-8.3-7.2c-3.8-0.9-8.2-0.2-13.1,2c-2.4,1.1-4.7,2.4-7.1,4c-2.4,1.6-4.7,3.5-7,5.6c-5.2,4.9-9.7,10.5-13.5,17.1
			c-3.8,6.5-6.7,13.5-8.6,21c-1.1,0.3-2,0.6-2.8,1c-0.8,0.3-1.5,0.7-2.1,1.1c-1.4,0.9-2.3,1.9-2.7,2.9s-0.7,1.9-0.7,2.6
			c0,0.8,0.3,1.5,0.8,2c0.6,0.5,1.2,0.8,2,0.8s1.5-0.3,2-0.8s0.8-1.2,0.8-2c0-0.2,0.5-0.6,1.4-1.1c-0.4,3.5-0.2,6.9,0.4,10.1
			c1,5.1,3,9.6,6,13.4c3.9,4.9,8.7,8.4,14.5,10.6C211.8,48.3,215,49.2,217.8,49.7z"/>
	</g>
</g>
<g id="XMLID_1_">
	<g id="XMLID_213_">
		<path id="XMLID_230_" class="st1" d="M234.5,78.8V43.5h14.6c1.5,0,2.9,0.3,4.2,1c1.3,0.6,2.4,1.5,3.3,2.5c0.9,1,1.7,2.2,2.2,3.6
			c0.5,1.3,0.8,2.7,0.8,4c0,1.5-0.2,2.9-0.7,4.2s-1.2,2.5-2.1,3.6c-0.9,1-2,1.9-3.2,2.5c-1.2,0.6-2.6,0.9-4.2,0.9H238v13
			C238,78.8,234.5,78.8,234.5,78.8z M238,62.7h11.3c1,0,2-0.2,2.8-0.7s1.6-1,2.2-1.8c0.6-0.7,1.1-1.6,1.4-2.6c0.3-1,0.5-2,0.5-3.1
			s-0.2-2.1-0.6-3.1s-0.9-1.8-1.5-2.6c-0.6-0.7-1.4-1.3-2.3-1.7c-0.9-0.4-1.8-0.6-2.8-0.6h-11L238,62.7L238,62.7z"/>
		<path id="XMLID_227_" class="st1" d="M265.4,78.8V43.5h14.9c1.5,0,2.9,0.3,4.2,1c1.3,0.6,2.4,1.5,3.3,2.5c0.9,1,1.6,2.2,2.2,3.6
			c0.5,1.3,0.8,2.7,0.8,4s-0.2,2.5-0.6,3.7c-0.4,1.2-0.9,2.2-1.6,3.2c-0.7,0.9-1.5,1.7-2.5,2.4c-1,0.6-2,1.1-3.2,1.3l8.7,13.6h-3.9
			l-8.3-13H269v13H265.4z M268.9,62.7h11.5c1,0,2-0.2,2.8-0.7c0.8-0.4,1.6-1.1,2.2-1.8c0.6-0.8,1.1-1.6,1.4-2.6s0.5-2,0.5-3
			c0-1.1-0.2-2.1-0.6-3.1c-0.4-1-0.9-1.8-1.5-2.6c-0.6-0.8-1.4-1.3-2.3-1.7c-0.9-0.4-1.8-0.6-2.8-0.6h-11.2V62.7z"/>
		<path id="XMLID_224_" class="st1" d="M312.2,79.1c-2.5,0-4.7-0.5-6.7-1.5s-3.8-2.4-5.2-4c-1.5-1.7-2.6-3.6-3.4-5.7
			c-0.8-2.2-1.2-4.4-1.2-6.6c0-2.4,0.4-4.6,1.3-6.8c0.8-2.2,2-4.1,3.5-5.7c1.5-1.7,3.3-3,5.3-4s4.2-1.5,6.6-1.5
			c2.5,0,4.7,0.5,6.7,1.6c2,1,3.8,2.4,5.2,4.1c1.4,1.7,2.6,3.6,3.4,5.7s1.2,4.3,1.2,6.5c0,2.4-0.4,4.6-1.3,6.8
			c-0.8,2.2-2,4.1-3.5,5.7c-1.5,1.6-3.2,3-5.2,3.9C316.7,78.6,314.5,79.1,312.2,79.1z M299.1,61.2c0,1.9,0.3,3.8,0.9,5.5
			c0.6,1.8,1.5,3.4,2.7,4.7c1.2,1.4,2.5,2.5,4.1,3.3c1.6,0.8,3.4,1.2,5.3,1.2c2,0,3.8-0.4,5.4-1.3c1.6-0.9,3-2,4.1-3.4
			c1.1-1.4,2-3,2.6-4.7c0.6-1.8,0.9-3.5,0.9-5.4s-0.3-3.8-1-5.5c-0.6-1.8-1.6-3.3-2.7-4.7c-1.2-1.4-2.5-2.4-4.1-3.3
			c-1.6-0.8-3.4-1.2-5.3-1.2c-2,0-3.8,0.4-5.4,1.3c-1.6,0.8-3,2-4.1,3.4c-1.1,1.4-2,3-2.6,4.7C299.4,57.6,299.1,59.4,299.1,61.2z"/>
		<path id="XMLID_222_" class="st1" d="M366.6,78.8v-29l-12.9,22.5h-2l-12.9-22.4v29h-3.5V43.6h3.6l13.8,24.2l13.9-24.2h3.5v35.3
			L366.6,78.8L366.6,78.8z"/>
		<path id="XMLID_220_" class="st1" d="M378.9,78.8V43.5h3.5v35.3C382.4,78.8,378.9,78.8,378.9,78.8z"/>
		<path id="XMLID_218_" class="st1" d="M411.9,50.1c-1-1.1-2.3-2-4-2.7s-3.6-1-5.7-1c-3.1,0-5.4,0.6-6.8,1.8
			c-1.4,1.2-2.1,2.8-2.1,4.8c0,1.1,0.2,1.9,0.6,2.6c0.4,0.7,1,1.3,1.8,1.8s1.8,0.9,3.1,1.3c1.2,0.4,2.7,0.7,4.4,1.1
			c1.9,0.4,3.6,0.8,5.1,1.3s2.8,1.1,3.9,1.9c1.1,0.7,1.9,1.7,2.4,2.7c0.6,1.1,0.8,2.4,0.8,4s-0.3,3-0.9,4.2c-0.6,1.2-1.5,2.2-2.6,3
			c-1.1,0.8-2.5,1.4-4,1.8c-1.6,0.4-3.3,0.6-5.1,0.6c-5.5,0-10.2-1.7-14.2-5.1l1.7-2.8c0.6,0.7,1.4,1.3,2.3,1.9
			c0.9,0.6,1.9,1.1,2.9,1.6c1.1,0.4,2.2,0.8,3.5,1c1.2,0.2,2.5,0.4,3.9,0.4c2.8,0,5-0.5,6.6-1.5c1.6-1,2.4-2.5,2.4-4.6
			c0-1.1-0.2-2-0.7-2.8c-0.4-0.7-1.1-1.4-2-1.9c-0.9-0.5-2-1-3.3-1.4c-1.3-0.4-2.9-0.8-4.6-1.2c-1.9-0.4-3.5-0.9-4.9-1.3
			c-1.4-0.5-2.6-1-3.5-1.7c-1-0.7-1.7-1.5-2.2-2.5s-0.7-2.2-0.7-3.6c0-1.6,0.3-3.1,0.9-4.4c0.6-1.3,1.5-2.3,2.6-3.2
			c1.1-0.8,2.5-1.5,4-1.9s3.2-0.7,5.1-0.7c2.4,0,4.5,0.4,6.3,1.1s3.5,1.7,5,3L411.9,50.1z"/>
		<path id="XMLID_216_" class="st1" d="M445.2,75.8v3.1h-23.7V43.6h23.3v3.1H425v12.6h17.3v2.9H425v13.5L445.2,75.8L445.2,75.8
			L445.2,75.8z"/>
		<path id="XMLID_214_" class="st1" d="M471.6,50.1c-1-1.1-2.3-2-4-2.7s-3.6-1-5.7-1c-3.1,0-5.4,0.6-6.8,1.8
			c-1.4,1.2-2.1,2.8-2.1,4.8c0,1.1,0.2,1.9,0.6,2.6c0.4,0.7,1,1.3,1.8,1.8s1.8,0.9,3.1,1.3c1.2,0.4,2.7,0.7,4.4,1.1
			c1.9,0.4,3.6,0.8,5.1,1.3s2.8,1.1,3.9,1.9c1.1,0.7,1.9,1.7,2.4,2.7c0.6,1.1,0.8,2.4,0.8,4s-0.3,3-0.9,4.2c-0.6,1.2-1.5,2.2-2.6,3
			c-1.1,0.8-2.5,1.4-4,1.8c-1.6,0.4-3.3,0.6-5.1,0.6c-5.5,0-10.2-1.7-14.2-5.1l1.7-2.8c0.6,0.7,1.4,1.3,2.3,1.9
			c0.9,0.6,1.9,1.1,2.9,1.6c1.1,0.4,2.2,0.8,3.5,1c1.2,0.2,2.5,0.4,3.9,0.4c2.8,0,5-0.5,6.6-1.5c1.6-1,2.4-2.5,2.4-4.6
			c0-1.1-0.2-2-0.7-2.8c-0.4-0.7-1.1-1.4-2-1.9c-0.9-0.5-2-1-3.3-1.4c-1.3-0.4-2.9-0.8-4.6-1.2c-1.9-0.4-3.5-0.9-4.9-1.3
			c-1.4-0.5-2.6-1-3.5-1.7c-1-0.7-1.7-1.5-2.2-2.5s-0.7-2.2-0.7-3.6c0-1.6,0.3-3.1,0.9-4.4c0.6-1.3,1.5-2.3,2.6-3.2
			c1.1-0.8,2.5-1.5,4-1.9s3.2-0.7,5.1-0.7c2.4,0,4.5,0.4,6.3,1.1s3.5,1.7,5,3L471.6,50.1z"/>
	</g>
</g>
</svg>
